<svg width="1821" height="1875" viewBox="0 0 1821 1875" fill="none" xmlns="http://www.w3.org/2000/svg">
<path d="M766.519 52.2127L69.5038 591.569C29.3978 621.995 0.355469 676.76 0.355469 729.866V1862.85C0.355469 1869.48 5.72805 1874.85 12.3555 1874.85H262.183C268.81 1874.85 274.183 1869.48 274.183 1862.85V832.205C272.339 816.532 276.395 779.653 307.374 757.525C338.255 735.467 719.854 442.217 908.568 296.984C909.646 296.154 911.048 296.154 912.127 296.984C1100.84 442.217 1482.44 735.467 1513.32 757.525C1544.3 779.653 1548.36 816.532 1546.51 832.205V1862.85C1546.51 1869.48 1551.88 1874.85 1558.51 1874.85H1808.34C1814.97 1874.85 1820.34 1869.48 1820.34 1862.85V729.866C1820.34 676.76 1791.3 621.995 1751.19 591.569L1054.18 52.2127C1010.45 16.9507 960.614 -0.119474 910.347 0.680937C860.081 -0.119474 810.244 16.9507 766.519 52.2127Z" fill="#2196F3"/>
</svg>
